<mxfile host="65bd71144e">
    <diagram id="eyboGpuw4xvrxChsIdXa" name="PÃ¡gina-1">
        <mxGraphModel dx="1234" dy="605" grid="1" gridSize="10" guides="1" tooltips="1" connect="1" arrows="1" fold="1" page="1" pageScale="1" pageWidth="827" pageHeight="1169" math="0" shadow="0">
            <root>
                <mxCell id="0"/>
                <mxCell id="1" parent="0"/>
                <mxCell id="2" value="&lt;font color=&quot;#1a1a1a&quot;&gt;&lt;b&gt;User&lt;br&gt;Interface&lt;br&gt;&lt;br&gt;&lt;br&gt;&lt;br&gt;&lt;br&gt;&lt;br&gt;&lt;br&gt;&lt;br&gt;&lt;br&gt;&lt;br&gt;&lt;br&gt;&lt;br&gt;&lt;br&gt;&lt;br&gt;&lt;br&gt;&lt;br&gt;&lt;br&gt;&lt;br&gt;&lt;br&gt;&lt;br&gt;&lt;br&gt;&lt;/b&gt;&lt;br&gt;&lt;/font&gt;" style="rounded=1;whiteSpace=wrap;html=1;fillColor=#ffcc99;strokeColor=#36393d;rotation=-90;" vertex="1" parent="1">
                    <mxGeometry x="522.9" y="-9.999999999999993" width="86.37" height="257" as="geometry"/>
                </mxCell>
                <mxCell id="3" value="&lt;font color=&quot;#1a1a1a&quot;&gt;&lt;b&gt;Framework&lt;/b&gt;&lt;br&gt;&lt;br&gt;&lt;br&gt;&lt;br&gt;&lt;br&gt;&lt;br&gt;&lt;br&gt;&lt;br&gt;&lt;br&gt;&lt;br&gt;&lt;br&gt;&lt;br&gt;&lt;br&gt;&lt;br&gt;&lt;/font&gt;" style="rounded=1;whiteSpace=wrap;html=1;fillColor=#dae8fc;strokeColor=#6c8ebf;gradientColor=#7ea6e0;" vertex="1" parent="1">
                    <mxGeometry x="709.12" y="65.46000000000001" width="125" height="258" as="geometry"/>
                </mxCell>
                <mxCell id="4" value="&lt;span style=&quot;&quot;&gt;&lt;font color=&quot;#000000&quot;&gt;Logging&lt;/font&gt;&lt;/span&gt;" style="rounded=1;whiteSpace=wrap;html=1;fillColor=#f5f5f5;strokeColor=none;gradientColor=#b3b3b3;" vertex="1" parent="1">
                    <mxGeometry x="726.5300000000001" y="241.81" width="90.19" height="25.97" as="geometry"/>
                </mxCell>
                <mxCell id="5" value="&lt;span style=&quot;&quot;&gt;&lt;font color=&quot;#000000&quot;&gt;&lt;b&gt;Exception&lt;/b&gt;&lt;/font&gt;&lt;/span&gt;" style="rounded=1;whiteSpace=wrap;html=1;fillColor=#f5f5f5;strokeColor=none;gradientColor=#b3b3b3;" vertex="1" parent="1">
                    <mxGeometry x="726.5300000000001" y="204.46" width="90.19" height="25.56" as="geometry"/>
                </mxCell>
                <mxCell id="6" value="&lt;b style=&quot;&quot;&gt;&lt;font color=&quot;#4d4d4d&quot;&gt;Data&lt;br&gt;Sources&lt;br&gt;&lt;br&gt;&lt;br&gt;&lt;br&gt;&lt;br&gt;&lt;br&gt;&lt;br&gt;&lt;br&gt;&lt;br&gt;&lt;br&gt;&lt;/font&gt;&lt;br&gt;&lt;/b&gt;" style="rounded=1;whiteSpace=wrap;html=1;fillColor=none;strokeColor=#b85450;rotation=-90;gradientColor=#ea6b66;" vertex="1" parent="1">
                    <mxGeometry x="441.12" y="317.02" width="86.37" height="92.33" as="geometry"/>
                </mxCell>
                <mxCell id="7" value="&lt;b&gt;&lt;font color=&quot;#990000&quot;&gt;SQLITE&lt;/font&gt;&lt;/b&gt;" style="verticalLabelPosition=bottom;html=1;verticalAlign=top;align=center;strokeColor=#6F0000;fillColor=#a20025;shape=mxgraph.azure.sql_reporting;fontColor=#ffffff;" vertex="1" parent="1">
                    <mxGeometry x="464.16999999999996" y="336.14" width="38.95" height="46" as="geometry"/>
                </mxCell>
                <mxCell id="8" value="&lt;font color=&quot;#1a1a1a&quot;&gt;&lt;b&gt;DAC&lt;br&gt;&lt;br&gt;&lt;br&gt;&lt;br&gt;&lt;br&gt;&lt;br&gt;&lt;br&gt;&lt;br&gt;&lt;br&gt;&lt;br&gt;&lt;br&gt;&lt;br&gt;&lt;br&gt;&lt;br&gt;&lt;br&gt;&lt;br&gt;&lt;br&gt;&lt;br&gt;&lt;br&gt;&lt;br&gt;&lt;br&gt;&lt;br&gt;&lt;/b&gt;&lt;br&gt;&lt;/font&gt;" style="rounded=1;whiteSpace=wrap;html=1;fillColor=#f8cecc;strokeColor=#b85450;rotation=-90;gradientColor=#ea6b66;" vertex="1" parent="1">
                    <mxGeometry x="533.24" y="153.82" width="64.03" height="255.53" as="geometry"/>
                </mxCell>
                <mxCell id="9" value="&lt;font color=&quot;#1a1a1a&quot;&gt;&lt;b&gt;DAO&lt;/b&gt;&lt;br&gt;&lt;/font&gt;" style="rounded=1;whiteSpace=wrap;html=1;fillColor=#f9f7ed;strokeColor=#36393d;" vertex="1" parent="1">
                    <mxGeometry x="511.12" y="258.08" width="44" height="47" as="geometry"/>
                </mxCell>
                <mxCell id="10" value="&lt;font color=&quot;#1a1a1a&quot;&gt;&lt;b&gt;Data Helper&lt;/b&gt;&lt;br&gt;&lt;/font&gt;" style="rounded=1;whiteSpace=wrap;html=1;fillColor=#f9f7ed;strokeColor=#36393d;" vertex="1" parent="1">
                    <mxGeometry x="445.12" y="258.09" width="58" height="47" as="geometry"/>
                </mxCell>
                <mxCell id="11" value="&lt;font color=&quot;#1a1a1a&quot;&gt;&lt;b&gt;DTO&lt;/b&gt;&lt;br&gt;&lt;/font&gt;" style="rounded=1;whiteSpace=wrap;html=1;fillColor=#f9f7ed;strokeColor=#36393d;" vertex="1" parent="1">
                    <mxGeometry x="624.12" y="260.14" width="58" height="47" as="geometry"/>
                </mxCell>
                <mxCell id="12" value="&lt;font color=&quot;#1a1a1a&quot;&gt;&lt;b&gt;IDAO&lt;/b&gt;&lt;br&gt;&lt;/font&gt;" style="rounded=1;whiteSpace=wrap;html=1;fillColor=#f9f7ed;strokeColor=#36393d;" vertex="1" parent="1">
                    <mxGeometry x="566.12" y="258.0799999999999" width="44" height="47" as="geometry"/>
                </mxCell>
                <mxCell id="13" value="&lt;font color=&quot;#1a1a1a&quot;&gt;&lt;b&gt;Business&lt;br&gt;&lt;br&gt;&lt;br&gt;&lt;br&gt;&lt;br&gt;&lt;br&gt;&lt;br&gt;&lt;br&gt;&lt;br&gt;&lt;br&gt;&lt;br&gt;&lt;br&gt;&lt;br&gt;&lt;br&gt;&lt;br&gt;&lt;br&gt;&lt;br&gt;&lt;br&gt;&lt;br&gt;&lt;br&gt;&lt;br&gt;&lt;br&gt;&lt;/b&gt;&lt;br&gt;&lt;/font&gt;" style="rounded=1;whiteSpace=wrap;html=1;fillColor=#d5e8d4;strokeColor=#82b366;rotation=-90;gradientColor=#97d077;" vertex="1" parent="1">
                    <mxGeometry x="533.24" y="81.66" width="66.78" height="249.15" as="geometry"/>
                </mxCell>
                <mxCell id="14" style="edgeStyle=none;curved=1;rounded=0;orthogonalLoop=1;jettySize=auto;html=1;entryX=0.5;entryY=0;entryDx=0;entryDy=0;endArrow=open;startSize=14;endSize=14;sourcePerimeterSpacing=8;targetPerimeterSpacing=8;" edge="1" parent="1" source="15" target="9">
                    <mxGeometry relative="1" as="geometry"/>
                </mxCell>
                <mxCell id="15" value="&lt;span style=&quot;color: rgb(26, 26, 26);&quot;&gt;&lt;b&gt;Business Logic&lt;/b&gt;&lt;/span&gt;" style="rounded=1;whiteSpace=wrap;html=1;fillColor=#f5f5f5;strokeColor=#666666;gradientColor=#b3b3b3;" vertex="1" parent="1">
                    <mxGeometry x="501.62" y="182.74" width="63" height="47" as="geometry"/>
                </mxCell>
                <mxCell id="16" value="&lt;font color=&quot;#1a1a1a&quot;&gt;&lt;b&gt;Business Entities&lt;/b&gt;&lt;/font&gt;" style="rounded=1;whiteSpace=wrap;html=1;fillColor=#f5f5f5;strokeColor=#666666;gradientColor=#b3b3b3;" vertex="1" parent="1">
                    <mxGeometry x="619.12" y="183.81" width="63" height="47" as="geometry"/>
                </mxCell>
                <mxCell id="17" value="&lt;font color=&quot;#828282&quot; style=&quot;font-size: 18px;&quot;&gt;&lt;b style=&quot;&quot;&gt;Arquitectura N-TIER&lt;/b&gt;&lt;/font&gt;" style="text;html=1;strokeColor=none;fillColor=none;align=center;verticalAlign=middle;whiteSpace=wrap;rounded=0;labelBackgroundColor=none;fontColor=#333333;" vertex="1" parent="1">
                    <mxGeometry x="380" y="31.46" width="245" height="30" as="geometry"/>
                </mxCell>
                <mxCell id="18" value="&lt;span style=&quot;color: rgb(26, 26, 26);&quot;&gt;&lt;b&gt;UI Component&lt;/b&gt;&lt;/span&gt;" style="rounded=1;whiteSpace=wrap;html=1;fillColor=#f5f5f5;strokeColor=#666666;gradientColor=#b3b3b3;" vertex="1" parent="1">
                    <mxGeometry x="441.12" y="94.08" width="131.45" height="28.62" as="geometry"/>
                </mxCell>
                <mxCell id="19" value="&lt;span style=&quot;color: rgb(26, 26, 26);&quot;&gt;Controller&lt;br&gt;UIC&lt;br&gt;&lt;/span&gt;" style="rounded=1;whiteSpace=wrap;html=1;fillColor=#f5f5f5;strokeColor=#666666;gradientColor=#b3b3b3;" vertex="1" parent="1">
                    <mxGeometry x="583.12" y="89.82" width="69" height="64" as="geometry"/>
                </mxCell>
            </root>
        </mxGraphModel>
    </diagram>
</mxfile>